<?xml version="1.0" encoding="UTF-8" standalone="no"?>
<!DOCTYPE svg PUBLIC "-//W3C//DTD SVG 1.1//EN"
 "http://www.w3.org/Graphics/SVG/1.1/DTD/svg11.dtd">
<!-- Generated by graphviz version 2.43.0 (0)
 -->
<!-- Title: G Pages: 1 -->
<svg width="1704pt" height="150pt"
 viewBox="0.00 0.00 1704.00 150.00" xmlns="http://www.w3.org/2000/svg" xmlns:xlink="http://www.w3.org/1999/xlink">
<g id="graph0" class="graph" transform="scale(1 1) rotate(0) translate(4 146)">
<title>G</title>
<polygon fill="white" stroke="transparent" points="-4,4 -4,-146 1700,-146 1700,4 -4,4"/>
<!-- azurerm_linux_virtual_machine.main -->
<g id="node1" class="node">
<title>azurerm_linux_virtual_machine.main</title>
<polygon fill="none" stroke="black" points="1575,-90 1305,-90 1305,-54 1575,-54 1575,-90"/>
<text text-anchor="middle" x="1440" y="-68.3" font-family="sans-serif" font-size="14.00">azurerm_linux_virtual_machine.main</text>
</g>
<!-- azurerm_network_interface.main -->
<g id="node2" class="node">
<title>azurerm_network_interface.main</title>
<polygon fill="none" stroke="black" points="1148,-89 904,-89 904,-53 1148,-53 1148,-89"/>
<text text-anchor="middle" x="1026" y="-67.3" font-family="sans-serif" font-size="14.00">azurerm_network_interface.main</text>
</g>
<!-- azurerm_linux_virtual_machine.main&#45;&gt;azurerm_network_interface.main -->
<g id="edge1" class="edge">
<title>azurerm_linux_virtual_machine.main&#45;&gt;azurerm_network_interface.main</title>
<path fill="none" stroke="black" d="M1304.95,-71.67C1257.9,-71.56 1205.12,-71.43 1158.3,-71.32"/>
<polygon fill="black" stroke="black" points="1158.1,-67.82 1148.1,-71.29 1158.09,-74.82 1158.1,-67.82"/>
</g>
<!-- azurerm_public_ip.public_ip -->
<g id="node5" class="node">
<title>azurerm_public_ip.public_ip</title>
<polygon fill="none" stroke="black" points="868,-142 660,-142 660,-106 868,-106 868,-142"/>
<text text-anchor="middle" x="764" y="-120.3" font-family="sans-serif" font-size="14.00">azurerm_public_ip.public_ip</text>
</g>
<!-- azurerm_network_interface.main&#45;&gt;azurerm_public_ip.public_ip -->
<g id="edge2" class="edge">
<title>azurerm_network_interface.main&#45;&gt;azurerm_public_ip.public_ip</title>
<path fill="none" stroke="black" d="M936.61,-89.02C913.06,-93.82 887.48,-99.03 863.43,-103.94"/>
<polygon fill="black" stroke="black" points="862.68,-100.52 853.58,-105.94 864.08,-107.37 862.68,-100.52"/>
</g>
<!-- azurerm_subnet.internal -->
<g id="node7" class="node">
<title>azurerm_subnet.internal</title>
<polygon fill="none" stroke="black" points="856.5,-88 671.5,-88 671.5,-52 856.5,-52 856.5,-88"/>
<text text-anchor="middle" x="764" y="-66.3" font-family="sans-serif" font-size="14.00">azurerm_subnet.internal</text>
</g>
<!-- azurerm_network_interface.main&#45;&gt;azurerm_subnet.internal -->
<g id="edge3" class="edge">
<title>azurerm_network_interface.main&#45;&gt;azurerm_subnet.internal</title>
<path fill="none" stroke="black" d="M903.75,-70.53C891.34,-70.49 878.82,-70.44 866.65,-70.39"/>
<polygon fill="black" stroke="black" points="866.54,-66.89 856.52,-70.35 866.51,-73.89 866.54,-66.89"/>
</g>
<!-- azurerm_network_interface_security_group_association.nsg_association -->
<g id="node3" class="node">
<title>azurerm_network_interface_security_group_association.nsg_association</title>
<polygon fill="none" stroke="black" points="1696,-36 1184,-36 1184,0 1696,0 1696,-36"/>
<text text-anchor="middle" x="1440" y="-14.3" font-family="sans-serif" font-size="14.00">azurerm_network_interface_security_group_association.nsg_association</text>
</g>
<!-- azurerm_network_interface_security_group_association.nsg_association&#45;&gt;azurerm_network_interface.main -->
<g id="edge4" class="edge">
<title>azurerm_network_interface_security_group_association.nsg_association&#45;&gt;azurerm_network_interface.main</title>
<path fill="none" stroke="black" d="M1256.37,-36.03C1232.01,-38.81 1207.38,-41.83 1184,-45 1169.99,-46.9 1155.3,-49.08 1140.77,-51.35"/>
<polygon fill="black" stroke="black" points="1140.08,-47.92 1130.75,-52.94 1141.17,-54.83 1140.08,-47.92"/>
</g>
<!-- azurerm_network_security_group.nsg -->
<g id="node4" class="node">
<title>azurerm_network_security_group.nsg</title>
<polygon fill="none" stroke="black" points="624,-36 348,-36 348,0 624,0 624,-36"/>
<text text-anchor="middle" x="486" y="-14.3" font-family="sans-serif" font-size="14.00">azurerm_network_security_group.nsg</text>
</g>
<!-- azurerm_network_interface_security_group_association.nsg_association&#45;&gt;azurerm_network_security_group.nsg -->
<g id="edge5" class="edge">
<title>azurerm_network_interface_security_group_association.nsg_association&#45;&gt;azurerm_network_security_group.nsg</title>
<path fill="none" stroke="black" d="M1183.88,-18C1008.27,-18 781.12,-18 634.73,-18"/>
<polygon fill="black" stroke="black" points="634.33,-14.5 624.33,-18 634.33,-21.5 634.33,-14.5"/>
</g>
<!-- azurerm_resource_group.myGroup_younes -->
<g id="node6" class="node">
<title>azurerm_resource_group.myGroup_younes</title>
<polygon fill="none" stroke="black" points="312,-90 0,-90 0,-54 312,-54 312,-90"/>
<text text-anchor="middle" x="156" y="-68.3" font-family="sans-serif" font-size="14.00">azurerm_resource_group.myGroup_younes</text>
</g>
<!-- azurerm_network_security_group.nsg&#45;&gt;azurerm_resource_group.myGroup_younes -->
<g id="edge6" class="edge">
<title>azurerm_network_security_group.nsg&#45;&gt;azurerm_resource_group.myGroup_younes</title>
<path fill="none" stroke="black" d="M375.32,-36.06C343.6,-41.28 308.81,-47.01 276.51,-52.32"/>
<polygon fill="black" stroke="black" points="275.87,-48.88 266.57,-53.96 277.01,-55.79 275.87,-48.88"/>
</g>
<!-- azurerm_public_ip.public_ip&#45;&gt;azurerm_resource_group.myGroup_younes -->
<g id="edge7" class="edge">
<title>azurerm_public_ip.public_ip&#45;&gt;azurerm_resource_group.myGroup_younes</title>
<path fill="none" stroke="black" d="M659.63,-120.08C575.56,-116.34 453.93,-109.66 348,-99 327.22,-96.91 305.22,-94.23 283.84,-91.38"/>
<polygon fill="black" stroke="black" points="284.12,-87.89 273.74,-90.02 283.18,-94.83 284.12,-87.89"/>
</g>
<!-- azurerm_virtual_network.main -->
<g id="node8" class="node">
<title>azurerm_virtual_network.main</title>
<polygon fill="none" stroke="black" points="599.5,-90 372.5,-90 372.5,-54 599.5,-54 599.5,-90"/>
<text text-anchor="middle" x="486" y="-68.3" font-family="sans-serif" font-size="14.00">azurerm_virtual_network.main</text>
</g>
<!-- azurerm_subnet.internal&#45;&gt;azurerm_virtual_network.main -->
<g id="edge8" class="edge">
<title>azurerm_subnet.internal&#45;&gt;azurerm_virtual_network.main</title>
<path fill="none" stroke="black" d="M671.48,-70.66C651.79,-70.81 630.67,-70.96 610.01,-71.11"/>
<polygon fill="black" stroke="black" points="609.89,-67.61 599.91,-71.18 609.94,-74.61 609.89,-67.61"/>
</g>
<!-- azurerm_virtual_network.main&#45;&gt;azurerm_resource_group.myGroup_younes -->
<g id="edge9" class="edge">
<title>azurerm_virtual_network.main&#45;&gt;azurerm_resource_group.myGroup_younes</title>
<path fill="none" stroke="black" d="M372.12,-72C356.08,-72 339.32,-72 322.54,-72"/>
<polygon fill="black" stroke="black" points="322.09,-68.5 312.09,-72 322.09,-75.5 322.09,-68.5"/>
</g>
</g>
</svg>
